<svg width="217" height="79" viewBox="0 0 217 79" fill="none" xmlns="http://www.w3.org/2000/svg">
<g clip-path="url(#clip0_316_197)">
<path d="M41.8172 79C40.3083 79.0203 38.8054 78.8039 37.3632 78.3586C36.1157 77.9714 34.9612 77.3308 33.9717 76.4769C33.0323 75.6584 32.2912 74.6365 31.8046 73.4885C31.2598 72.1388 30.9992 70.6909 31.0391 69.2355C31.0791 67.7802 31.4187 66.3488 32.0367 65.0311C32.7075 63.6901 33.6926 62.5318 34.9076 61.6551C36.2729 60.6907 37.7974 59.9749 39.4108 59.5407C41.3377 59.0084 43.3297 58.7498 45.3284 58.7725H52.5828V58.5399C52.6036 57.9359 52.4878 57.3351 52.2441 56.7822C52.0004 56.2293 51.6351 55.7388 51.1755 55.3472C50.0303 54.4687 48.6038 54.0401 47.1648 54.1421C45.8864 54.0961 44.6174 54.3775 43.4778 54.9596C42.4825 55.5294 41.6847 56.39 41.191 57.4264L31.882 53.2611C33.5476 51.1241 35.6305 49.3494 38.0036 48.0456C40.4006 46.7112 43.4356 46.0464 47.1086 46.0511C51.9073 46.0511 55.5967 47.174 58.1767 49.4199C60.7567 51.6659 62.0443 54.8633 62.0396 59.0121V78.3657H52.611V74.137C51.4767 75.6726 49.9638 76.8869 48.2203 77.6609C46.2105 78.5745 44.024 79.0318 41.8172 79ZM45.1524 71.198C45.9767 71.2014 46.7962 71.0729 47.58 70.8174C48.3669 70.5685 49.1171 70.2154 49.8105 69.7672C50.478 69.3285 51.0778 68.7943 51.5907 68.1815C52.0744 67.618 52.4511 66.9707 52.7024 66.2715V65.6301H46.6723C44.796 65.6301 43.4496 65.9144 42.6334 66.4829C42.257 66.7128 41.9461 67.0358 41.7304 67.4209C41.5147 67.8061 41.4017 68.2403 41.4021 68.6819C41.3974 70.3593 42.6452 71.198 45.1454 71.198H45.1524Z" fill="white"/>
<path d="M64.9941 46.6854H74.8872V50.3785C75.8536 49.054 77.1038 47.9631 78.5461 47.1858C80.0379 46.4094 81.6991 46.017 83.38 46.044C86.8888 46.044 89.6799 47.1388 91.7532 49.3284C93.8266 51.5179 94.861 54.572 94.8563 58.4906V78.3728H84.7381V60.4711C84.8279 58.9707 84.417 57.4831 83.57 56.2424C83.1245 55.7252 82.5637 55.3204 81.9329 55.0608C81.3021 54.8012 80.6191 54.6941 79.9393 54.7482C79.2686 54.7298 78.6019 54.857 77.9849 55.121C77.3679 55.385 76.8152 55.7795 76.3648 56.2776C75.4266 57.2925 74.9576 58.8548 74.9576 60.9645V78.3869H64.9941V46.6854Z" fill="white"/>
<path d="M111.539 79C109.686 78.9957 107.853 78.6069 106.157 77.8582C104.394 77.0949 102.801 75.988 101.47 74.6021C100.052 73.1129 98.9383 71.3603 98.1915 69.443C96.5495 64.9949 96.5495 60.1054 98.1915 55.6573C98.9369 53.7374 100.04 51.977 101.442 50.47C102.755 49.0751 104.338 47.9632 106.095 47.2021C107.852 46.4411 109.745 46.047 111.659 46.0439C113.449 45.9973 115.224 46.3791 116.838 47.1575C118.266 47.8669 119.502 48.9114 120.44 50.2022V32.1384H130.164V78.3586H120.504V74.4893C119.532 75.8922 118.235 77.0384 116.725 77.83C115.117 78.6353 113.337 79.0369 111.539 79ZM113.882 69.6192C114.849 69.6292 115.807 69.4396 116.697 69.0624C117.548 68.7044 118.322 68.1851 118.977 67.533C119.649 66.8728 120.183 66.0841 120.545 65.2137C120.908 64.3432 121.092 63.4087 121.088 62.4656C121.098 61.4976 120.908 60.5379 120.532 59.6464C120.181 58.7919 119.665 58.0156 119.012 57.3629C118.185 56.5275 117.165 55.9095 116.042 55.5639C114.919 55.2182 113.729 55.1556 112.576 55.3815C111.423 55.6074 110.344 56.1149 109.434 56.8589C108.524 57.6029 107.812 58.5604 107.36 59.6464C106.983 60.5379 106.794 61.4976 106.804 62.4656C106.792 63.4337 106.981 64.3938 107.36 65.2847C107.719 66.1261 108.235 66.8914 108.88 67.54C109.535 68.1938 110.312 68.7133 111.166 69.0695C112.026 69.4312 112.95 69.6181 113.882 69.6192Z" fill="white"/>
<path d="M148.959 78.9435C146.575 78.9781 144.207 78.5497 141.986 77.682C140.009 76.8964 138.223 75.6947 136.75 74.158C135.311 72.6556 134.187 70.8799 133.443 68.9355C132.646 66.8802 132.248 64.6915 132.268 62.4867C132.255 60.2927 132.683 58.1185 133.528 56.0942C134.342 54.1363 135.524 52.3536 137.011 50.8435C138.52 49.3342 140.311 48.1369 142.281 47.3196C144.376 46.4473 146.626 46.0086 148.895 46.0298C151.17 46.0026 153.428 46.4192 155.545 47.2561C157.495 48.0384 159.268 49.2057 160.758 50.6885C162.224 52.1617 163.378 53.9165 164.15 55.8475C164.968 57.91 165.377 60.1125 165.353 62.3316V65.7921H141.817C142.275 67.2822 143.222 68.5735 144.505 69.457C145.886 70.3339 147.5 70.7735 149.134 70.7186C150.485 70.7566 151.823 70.4537 153.026 69.8376C154.092 69.2586 154.99 68.4107 155.629 67.3779L163.594 72.0084C162.037 74.1268 160.027 75.8702 157.712 77.1111C155.427 78.3327 152.51 78.9435 148.959 78.9435ZM148.959 54.2759C147.521 54.2246 146.101 54.6044 144.88 55.3665C143.659 56.1287 142.693 57.2385 142.105 58.5539H155.629C155.164 57.2425 154.281 56.1206 153.117 55.3612C151.867 54.5966 150.422 54.2121 148.959 54.2547V54.2759Z" fill="white"/>
<path d="M167.401 46.6854H177.119V51.1467C177.796 49.4638 179.041 48.0721 180.637 47.214C182.312 46.3979 184.158 45.9967 186.019 46.044C186.988 46.0361 187.953 46.1546 188.89 46.3964C189.735 46.6094 190.557 46.902 191.346 47.2704L187.954 57.1375C187.373 56.7311 186.729 56.4239 186.048 56.2283C185.223 55.9703 184.364 55.8419 183.5 55.8477C181.812 55.7556 180.155 56.3242 178.878 57.4335C177.747 58.4906 177.182 60.2902 177.182 62.8322V78.3728H167.401V46.6854Z" fill="white"/>
<path d="M9.78048 32.1384H0V60.1539L9.78048 48.264V32.1384Z" fill="white"/>
<path d="M20.7853 60.3512L32.2052 46.6853H20.6094L9.78048 59.7662V59.7521L0 71.5644V78.3516H9.78048V71.3741L13.763 66.6802L21.6085 78.3516H32.7329L20.7853 60.3512Z" fill="white"/>
<path d="M208.866 0H174.592C172.437 0.00558866 170.372 0.865986 168.849 2.39291C167.326 3.91983 166.469 5.98892 166.465 8.14738V23.9981C166.47 26.1554 167.328 28.2227 168.851 29.7481C170.374 31.2735 172.438 32.1329 174.592 32.1385H177.463V42.4707L187.89 32.1385H208.866C211.024 32.1385 213.094 31.2817 214.622 29.7559C216.151 28.2301 217.013 26.1597 217.021 23.9981V8.14738C217.015 5.98462 216.153 3.91234 214.625 2.38501C213.096 0.857688 211.025 -7.24526e-06 208.866 0Z" fill="white"/>
<path d="M178.462 20.9745C181.166 20.9745 183.359 18.7783 183.359 16.0692C183.359 13.36 181.166 11.1638 178.462 11.1638C175.757 11.1638 173.564 13.36 173.564 16.0692C173.564 18.7783 175.757 20.9745 178.462 20.9745Z" fill="#052A30"/>
<path d="M191.732 20.9745C194.437 20.9745 196.63 18.7783 196.63 16.0692C196.63 13.36 194.437 11.1638 191.732 11.1638C189.028 11.1638 186.835 13.36 186.835 16.0692C186.835 18.7783 189.028 20.9745 191.732 20.9745Z" fill="#052A30"/>
<path d="M204.996 20.9745C207.701 20.9745 209.893 18.7783 209.893 16.0692C209.893 13.36 207.701 11.1638 204.996 11.1638C202.291 11.1638 200.099 13.36 200.099 16.0692C200.099 18.7783 202.291 20.9745 204.996 20.9745Z" fill="#052A30"/>
</g>
<defs>
<clipPath id="clip0_316_197">
<rect width="217" height="79" fill="white"/>
</clipPath>
</defs>
</svg>
